<?xml version="1.0" encoding="utf-8"?>
<!-- Generator: Adobe Illustrator 21.0.2, SVG Export Plug-In . SVG Version: 6.00 Build 0)  -->
<svg version="1.1" id="Layer_1" xmlns="http://www.w3.org/2000/svg" xmlns:xlink="http://www.w3.org/1999/xlink" x="0px" y="0px"
	 viewBox="0 0 221.1 225.1" style="enable-background:new 0 0 221.1 225.1;" xml:space="preserve">
<style type="text/css">
	.st0{fill:#BF1500;}
</style>
<path class="st0" d="M170.1,52l22.5-22c0,0-42.5-50-122-21c1.5,0-78,34.7-70,116c2,1.3,1.4,74.7,95.7,98.7
	c0.3,0.7,72.9,12.7,109.6-48c-1.3,0.7,24-32.7,12-72c0.7,0-103.3,0-103.3,0l0.7,28.7l72.7-0.7c0,0,0,42-37.3,57.3
	c0,0-68.7,26-104.7-30c-0.7,0.7-33.3-64,11.3-106.7C58.6,49,115.6,5,170.1,52z"/>
</svg>
