<?xml version="1.0" encoding="utf-8"?>
<!-- Generator: Adobe Illustrator 21.0.2, SVG Export Plug-In . SVG Version: 6.00 Build 0)  -->
<svg version="1.1" id="Layer_3" xmlns="http://www.w3.org/2000/svg" xmlns:xlink="http://www.w3.org/1999/xlink" x="0px" y="0px"
	 viewBox="0 0 149.6 155.2" style="enable-background:new 0 0 149.6 155.2;" xml:space="preserve">
<style type="text/css">
	.st0{fill:#EF2B2D;}
	.st1{fill:#FFFFFF;}
	.st2{fill:#002868;}
</style>
<g id="Layer_3_1_">
	<path class="st0" d="M117.4,36.1l13.8-13.2c0,0-18.2-16.9-28.9-18.2c-1.9-1.9-0.6,23.8-0.6,23.8L117.4,36.1z"/>
	<path class="st1" d="M102.3,4.7l-0.6,23.8c0,0-8.8-6.3-20.1-5.6c-1.3-1.3,0-22,0-22S97.3-2.8,102.3,4.7z"/>
	<path class="st2" d="M81.6,0.9v22c0,0-18.8-3.8-32,8.5c0-2.2,0-26.8,0-26.8S72.8-2.2,81.6,0.9z"/>
	<polygon class="st1" points="49.6,4.6 32.1,15.7 32.1,48 49.6,31.4 	"/>
	<path class="st0" d="M32.1,15.7V48c0,0-13.2,20.7-8.2,35.1c-1.3,1.3-23.8-0.6-23.8-0.6S-3.1,38.1,32.1,15.7z"/>
	<path class="st1" d="M0.1,82.5l23.8,0.6c0,0-0.6,15.7,3.8,16.9c-0.6,0.6-23.8,0-23.8,0L0.1,82.5z"/>
	<path class="st2" d="M3.8,100h23.8c0,0,10.2,26.3,31.4,29.5c-2.5-0.6-9.4,3.1-9.4,3.1l-25.1,0.6C24.5,133.3,7.6,117.6,3.8,100z"/>
	<polygon class="st1" points="24.5,133.3 49.6,132.7 49.6,151.5 	"/>
	<path class="st2" d="M49.6,132.7v18.8c0,0,23.6,7.5,30.6,1.3c-1.8-1.3,0-20.1,0-20.1L59,129.5L49.6,132.7z"/>
	<path class="st2" d="M80.2,132.7v20.1c0,0,39,2.5,50.9-20.1C131.8,132.7,80.2,132.7,80.2,132.7z"/>
	<path class="st2" d="M94.8,132.7c0,0,31.4-8.2,33.2-33.9c0.6,0,20.7,1.3,20.7,1.3s-5,30.7-17.6,32.6H94.8z"/>
	<path class="st1" d="M128,98.8v-7.4H82.2l-2-20.2h21.5l1.3,10.7h45.8c0,0,2.1,9.1,0,18.2"/>
	<polygon class="st0" points="101.7,71.2 102.9,81.9 148.7,81.9 148.7,71.2 	"/>
</g>
</svg>
