<?xml version="1.0" encoding="utf-8"?>
<!-- Generator: Adobe Illustrator 21.0.2, SVG Export Plug-In . SVG Version: 6.00 Build 0)  -->
<svg version="1.1" id="Layer_1" xmlns="http://www.w3.org/2000/svg" xmlns:xlink="http://www.w3.org/1999/xlink" x="0px" y="0px"
	 viewBox="0 0 139.9 209.2" style="enable-background:new 0 0 139.9 209.2;" xml:space="preserve">
<style type="text/css">
	.st0{fill:#D43500;}
	.st1{fill:#FFFFFF;}
</style>
<path class="st0" d="M107.9,0.3h32v150c0,0-8,47-46,54c0,0-55,25-83-37c-1,0,23-12,23-12s20,41,56,21c0-2,27,0,19-48
	c-1-2-22,27-68,10c-1,1-66.1-32-30-99c-2,0,6-43,77-39c0-1,23,12,21,17C106.9,16.3,107.9,0.3,107.9,0.3z"/>
<path class="st1" d="M30.6,64.3c0,0,15-55,68-26c0,1,33,55-16,79C82.6,117.3,27.6,128.3,30.6,64.3z"/>
</svg>
