<?xml version="1.0" encoding="utf-8"?>
<!-- Generator: Adobe Illustrator 21.0.2, SVG Export Plug-In . SVG Version: 6.00 Build 0)  -->
<svg version="1.1" id="Layer_3" xmlns="http://www.w3.org/2000/svg" xmlns:xlink="http://www.w3.org/1999/xlink" x="0px" y="0px"
	 viewBox="0 0 153.8 229" style="enable-background:new 0 0 153.8 229;" xml:space="preserve">
<style type="text/css">
	.st0{fill:#EF2B2D;}
	.st1{fill:#FFFFFF;}
	.st2{fill:#002868;}
</style>
<path class="st0" d="M120.1,3.2h33.3v21.7l-131.3,1c0,0,33.3-36.7,70-22.7c-0.7-2,26,10,26.7,14L120.1,3.2z"/>
<path class="st1" d="M22.1,25.9c0,0-16.7,22.7-15.3,26.7c0,1.3,37.3,2.7,37.3,2.7s30-54,75.3-2c-2.7,0.7,34,0.7,34,0.7V25L22.1,25.9
	z"/>
<path class="st2" d="M6.8,52.5l37.3,2.7c0,0-18.7,26.7,0,50.7c-3.3-0.7-37.3,0-37.3,0S-8.5,79.2,6.8,52.5z"/>
<path class="st1" d="M6.8,105.9h37.3c0,0,38.7,50.7,74-0.7c-1.3,1.3,35.3,0,35.3,0v30.7H22.1C22.1,135.9,8.8,123.2,6.8,105.9z"/>
<path class="st2" d="M119.5,53.2l34,0.7v51.3h-35.3C118.1,105.2,136.8,85.9,119.5,53.2z"/>
<path class="st0" d="M22.1,135.9h99.3h32c0,0,7.3,76.7-46,88.7c-2-2-51.3,20.6-85.3-19.7c-0.7-3-15.3-22.4-15.3-22.4l32.7-11.9
	c0,0,12.7,36,52,26c0,0.7,35.9-7.2,30.2-56.2c-0.8-0.2-2-1.2-2-1.2s-9.5,16.5-31.2,17.8C88.1,155.6,61.4,170.6,22.1,135.9z"/>
</svg>
