<?xml version="1.0" encoding="utf-8"?>
<!-- Generator: Adobe Illustrator 21.0.2, SVG Export Plug-In . SVG Version: 6.00 Build 0)  -->
<svg version="1.1" id="Layer_3" xmlns="http://www.w3.org/2000/svg" xmlns:xlink="http://www.w3.org/1999/xlink" x="0px" y="0px"
	 viewBox="0 0 144.6 159.6" style="enable-background:new 0 0 144.6 159.6;" xml:space="preserve">
<style type="text/css">
	.st0{fill:#FFFFFF;}
	.st1{fill:#002868;}
	.st2{fill:#EF2B2D;}
</style>
<path class="st0" d="M49.6,9.8h57c0,0-13-17.5-57-5.7C49.3,3.9,49.6,9.8,49.6,9.8z"/>
<path class="st1" d="M144.6,59.8c0,0-16.4-40.7-38-50h-57V4.1c0,0-50,23.3-49.3,63c0,1-4.7,53.3,23.7,71
	c-0.3,0.7,18.7,13.7,21.3,14.3c2.7,0.7,1.7-30.3,1.7-30.3l-1.3-8.7l-7.3-9.7l8.7-2.7L144.6,59.8z"/>
<path class="st0" d="M72.3,61.8c-0.2-2,33.3-13.5,33.3-13.5s-24.5-37-62.5,0c-1.5,0.5-14,19.5-10.5,30c0,0,13.8-7.5,13.8-7.5v-9
	H72.3z"/>
<path class="st0" d="M45.6,113.4l-0.3,39c0,0,23.3,9,35.3,6.8c0-1.5,0-31.5,0-31.5S53,123.1,45.6,113.4z"/>
<path class="st2" d="M80.6,127.8v31.5c0,0,43.3-0.2,61.3-34.8c-2,1.3-25.3-20-25.3-20S99.4,132.6,80.6,127.8z"/>
<polygon class="st2" points="46.4,61.8 46.4,70.8 72.3,61.8 "/>
</svg>
