<?xml version="1.0" encoding="utf-8"?>
<!-- Generator: Adobe Illustrator 21.0.2, SVG Export Plug-In . SVG Version: 6.00 Build 0)  -->
<svg version="1.1" id="Layer_1" xmlns="http://www.w3.org/2000/svg" xmlns:xlink="http://www.w3.org/1999/xlink" x="0px" y="0px"
	 viewBox="0 0 131 144.8" style="enable-background:new 0 0 131 144.8;" xml:space="preserve">
<style type="text/css">
	.st0{fill:#0002FF;}
	.st1{fill:#FFFFFF;}
</style>
<path class="st0" d="M131,53c0,0-2-41-56-53C72,0-14,3,2,95c1,1,19,57,80,49c-2-1,30,3,49-31c0-2-22-16-22-16s-27,37-65,12
	c0-1-9-16-9-16L131,53z"/>
<path class="st1" d="M93,45L32,72.4c0,0,0-37.4,30.5-42.4C65,31,91.6,21.7,93,45z"/>
</svg>
