<?xml version="1.0" encoding="utf-8"?>
<!-- Generator: Adobe Illustrator 21.0.2, SVG Export Plug-In . SVG Version: 6.00 Build 0)  -->
<svg version="1.1" id="Layer_4" xmlns="http://www.w3.org/2000/svg" xmlns:xlink="http://www.w3.org/1999/xlink" x="0px" y="0px"
	 viewBox="0 0 612 792" style="enable-background:new 0 0 612 792;" xml:space="preserve">
<style type="text/css">
	.st0{fill:#002868;}
	.st1{fill:#EF2B2D;}
</style>
<path class="st0" d="M198,265c22.7-21.7,51.3-6.5,51.3-6.5s-0.3-32-0.3-32.4c-26.2-11.4-52,0-52,0"/>
<path class="st1" d="M249,226.1l0.3,32.4c0,0,44.7,37.7-0.3,86.9c-3.7,1.2,0,22.6,0,22.6h20.2c0,0,55.4-29,27.4-109.5
	C295.9,257.2,285.3,237.5,249,226.1z"/>
<path class="st1" d="M201,377l1.5-34.2c0,0-44.9-42.3,5.3-91.6c3.9-1.1,1.3-23.8,1.3-23.8l-21.3-1.2c0,0-60.1,27.4-35.2,113.8
	C153.4,341.5,163.4,362.9,201,377z"/>
<path class="st0" d="M198,339l-1,29l-15.9,0.5c0,0,51.3,18.5,88.1-0.5H249v-22.6C249,345.4,208.3,353.8,198,339z"/>
</svg>
